Coordinates
version=1
nRows=9
nColumns=63
inDegrees=yes

Units are S.I. units (second, meters, Newtons, ...)
If the header above contains a line with 'inDegrees', this indicates whether rotational values are in degrees (yes) or radians (no).

endheader
time	pelvis_tilt	pelvis_list	pelvis_rotation	pelvis_tx	pelvis_ty	pelvis_tz	hip_flexion_r	hip_adduction_r	hip_rotation_r	knee_angle_r	knee_angle_r_beta	ankle_angle_r	subtalar_angle_r	mtp_angle_r	hip_flexion_l	hip_adduction_l	hip_rotation_l	knee_angle_l	knee_angle_l_beta	ankle_angle_l	subtalar_angle_l	mtp_angle_l	L5_S1_Flex_Ext	L5_S1_Lat_Bending	L5_S1_axial_rotation	L4_L5_Flex_Ext	L4_L5_Lat_Bending	L4_L5_axial_rotation	L3_L4_Flex_Ext	L3_L4_Lat_Bending	L3_L4_axial_rotation	L2_L3_Flex_Ext	L2_L3_Lat_Bending	L2_L3_axial_rotation	L1_L2_Flex_Ext	L1_L2_Lat_Bending	L1_L2_axial_rotation	L1_T12_Flex_Ext	L1_T12_Lat_Bending	L1_T12_axial_rotation	Abs_r3	Abs_r2	Abs_r1	Abs_t1	Abs_t2	neck_flexion	neck_bending	neck_rotation	arm_flex_r	arm_add_r	arm_rot_r	elbow_flex_r	pro_sup_r	wrist_flex_r	wrist_dev_r	arm_flex_l	arm_add_l	arm_rot_l	elbow_flex_l	pro_sup_l	wrist_flex_l	wrist_dev_l
3.135593	-8.945829	-31.308929	89.167590	0.286686	0.678911	0.887334	37.248859	-3.463191	-0.173443	15.380400	0.268439	24.496001	-10.543867	0.000000	33.692333	2.396906	-10.291646	9.821754	0.171422	26.492900	13.744613	0.000000	0.008983	-0.887127	0.905412	0.016681	-1.179879	0.962000	0.014757	-2.156961	0.962000	0.010266	-2.156961	0.792235	0.008341	-1.809030	0.735647	0.005133	-1.374160	0.679059	0.064161	-10.035361	5.035628	0.000000	0.000000	5.363037	7.574852	-14.326034	0.346219	-9.854922	22.427770	72.648495	85.791667	5.556094	9.094442	8.859790	-16.158363	22.232316	85.766388	88.664826	-4.867732	13.472269
3.152542	-8.301828	-30.023588	89.131644	0.287243	0.684064	0.883451	34.450844	-2.944267	-1.561932	13.070147	0.228117	23.202788	-9.115043	0.000000	31.354540	1.969581	-9.140797	8.339733	0.145556	25.405812	12.795750	0.000000	0.017588	-0.801655	0.923054	0.032663	-1.066201	0.980745	0.028896	-1.949144	0.980745	0.020102	-1.949144	0.807672	0.016333	-1.634735	0.749981	0.010050	-1.241763	0.692291	0.125632	-9.068481	5.133750	0.000000	0.000000	5.611409	7.278278	-13.147285	0.531534	-10.596700	25.471491	70.982708	85.447172	6.321199	10.024136	7.699150	-16.251319	23.987323	84.106251	88.777622	-5.253170	13.778622
3.169492	-7.670269	-28.732343	89.101789	0.287572	0.688877	0.879668	31.755169	-2.408426	-2.829629	10.953248	0.191170	21.894871	-7.772854	0.000000	29.092089	1.528725	-7.957043	7.015778	0.122448	24.432645	11.735568	0.000000	0.020563	-0.709901	0.893388	0.038188	-0.944168	0.949225	0.033784	-1.726054	0.949225	0.023502	-1.726054	0.781715	0.019095	-1.447630	0.725878	0.011750	-1.099637	0.670041	0.146883	-8.030543	4.968757	0.000000	0.000000	5.915081	6.887950	-11.674225	0.928721	-11.287132	28.727128	69.537666	85.337360	6.828179	10.809266	6.427907	-16.300144	25.529090	82.550746	88.928272	-5.280286	14.491474
3.186441	-7.090887	-27.428509	89.047918	0.287685	0.693346	0.875967	29.176709	-1.871688	-3.870213	9.062629	0.158173	20.570369	-6.648229	0.000000	26.887910	1.101831	-6.767205	5.836654	0.101869	23.569422	10.579154	0.000000	0.016338	-0.616477	0.826355	0.030342	-0.819914	0.878002	0.026842	-1.498901	0.878002	0.018673	-1.498901	0.723061	0.015172	-1.257119	0.671413	0.009336	-0.954922	0.619766	0.116703	-6.973707	4.595938	0.000000	0.000000	6.226675	6.390895	-9.975372	1.485275	-11.920136	32.102594	68.323445	85.302496	6.999648	11.271848	5.130702	-16.310056	26.898842	81.091376	89.104629	-4.930997	15.456984
3.203390	-6.578004	-26.125102	88.962376	0.287595	0.697460	0.872303	26.731175	-1.342487	-4.632492	7.402766	0.129203	19.255302	-5.815859	0.000000	24.741083	0.701181	-5.593577	4.783189	0.083482	22.814251	9.349747	0.000000	0.007824	-0.523701	0.727963	0.014531	-0.696522	0.773461	0.012855	-1.273326	0.773461	0.008943	-1.273326	0.636968	0.007266	-1.067931	0.591470	0.004471	-0.811213	0.545972	0.055889	-5.924208	4.048713	0.000000	0.000000	6.507199	5.781160	-8.089835	2.167780	-12.502227	35.571865	67.356322	84.969950	6.869500	11.261953	3.871825	-16.279047	28.118282	79.723923	89.230694	-4.134925	16.471841
3.220339	-6.128304	-24.821107	88.854026	0.287339	0.701273	0.868678	24.417668	-0.835724	-5.126797	5.973475	0.104257	17.960896	-5.284576	0.000000	22.652820	0.336461	-4.446763	3.862776	0.067418	22.135591	8.066806	0.000000	-0.006079	-0.433382	0.609763	-0.011289	-0.576398	0.647873	-0.009987	-1.053726	0.647873	-0.006947	-1.053726	0.533543	-0.005645	-0.883753	0.495432	-0.003473	-0.671309	0.457322	-0.043420	-4.902507	3.391319	0.000000	0.000000	6.764635	5.050556	-6.122160	2.956527	-13.053296	39.120627	66.621231	83.831479	6.519515	10.519326	2.791290	-16.227365	29.358441	78.406634	89.248754	-2.969068	17.110599
3.237288	-5.724512	-23.509339	88.754080	0.286886	0.704820	0.865088	22.219918	-0.356377	-5.357747	4.763036	0.083131	16.724270	-5.071416	0.000000	20.608781	0.008612	-3.335380	3.060660	0.053419	21.538832	6.773021	0.000000	-0.026489	-0.345357	0.482818	-0.049193	-0.459325	0.512994	-0.043519	-0.839702	0.512994	-0.030275	-0.839702	0.422466	-0.024598	-0.704253	0.392290	-0.015136	-0.534958	0.362114	-0.189211	-3.906751	2.685289	0.000000	0.000000	7.013899	4.212546	-4.173534	3.808424	-13.598365	42.642814	66.111513	82.306807	6.026147	9.064005	2.017555	-16.123061	30.735374	77.060162	89.148481	-1.351677	17.113666
3.254237	-5.333840	-22.217708	88.701814	0.286226	0.708086	0.861572	20.154054	0.082962	-5.419054	3.754809	0.065534	15.577607	-5.096102	0.000000	18.643985	-0.281357	-2.253244	2.380848	0.041554	21.031496	5.492988	0.000000	-0.047822	-0.257638	0.356653	-0.088811	-0.342658	0.378944	-0.078567	-0.626420	0.378944	-0.054656	-0.626420	0.312071	-0.044408	-0.525374	0.289780	-0.027326	-0.399081	0.267490	-0.341590	-2.914447	1.983596	0.000000	0.000000	7.256522	3.266520	-2.306384	4.689206	-14.189636	46.160297	65.879067	79.800821	5.292243	7.043249	1.659265	-15.981929	32.466897	75.697186	88.987543	0.407647	16.360492
3.271186	-4.950283	-20.944514	88.709765	0.285358	0.711093	0.858175	18.209145	0.473148	-5.374982	2.930522	0.051147	14.545527	-5.286618	0.000000	16.763524	-0.534983	-1.245743	1.823455	0.031825	20.628318	4.294611	0.000000	-0.070089	-0.170393	0.239241	-0.130162	-0.226622	0.254194	-0.115149	-0.414293	0.254194	-0.080104	-0.414293	0.209336	-0.065084	-0.347465	0.194383	-0.040049	-0.263938	0.179431	-0.500636	-1.927517	1.330588	0.000000	0.000000	7.512631	2.236177	-0.575526	5.581599	-14.850611	49.629664	65.947590	76.169054	4.431126	4.768060	1.781993	-15.804363	34.664026	74.292345	88.749387	2.294491	14.890217
